PathFileType	4	(X/Y/Z)	C:/Users/beibeiliu/ov580/test_trc/User2\sequence.9_training_dense_right.trc
DataRate	CameraRate	NumFrames	NumMarkers	Units	OrigDataRate	OrigDataStartFrame	OrigNumFrames
120	120	18	19	mm	120	29	86
Frame#	Time	ThumbCMC			ThumbMCP			ThumbIP			ThumbTip			IndexMCP			IndexPIP			IndexTip			MiddleMCP			MiddlePIP			MiddleTip			RingMCP			RingPIP			RingTip			PinkyMCP			PinkyPIP			PinkyTip			BackHand1			BackHand2			BackHand3	
		X0	Y0	Z0	X1	Y1	Z1	X2	Y2	Z2	X3	Y3	Z3	X4	Y4	Z4	X5	Y5	Z5	X6	Y6	Z6	X7	Y7	Z7	X8	Y8	Z8	X9	Y9	Z9	X10	Y10	Z10	X11	Y11	Z11	X12	Y12	Z12	X13	Y13	Z13	X14	Y14	Z14	X15	Y15	Z15	X16	Y16	Z16	X17	Y17	Z17	X18	Y18	Z18	
28	0.233333	114.446	120.847	-23.9601	92.6316	114.35	-48.5617	78.3873	92.2697	-68.4943	69.1915	70.18	-82.286	101.141	69.576	-93.1993	90.1967	54.1046	-106.321	77.71	31.7273	-125.734	115.535	52.1775	-93.7896	101.861	35.1954	-110.029	91.0266	15.4266	-133.416	130.269	39.23	-84.2042	120.356	24.4835	-100.751	107.792	9.96097	-120.052	144.766	32.799	-61.8438	134.176	19.2453	-81.3663	127.029	7.85888	-99.553	160.312	75.1171	-43.5806	176.473	94.3023	-20.4252	142.709	109.046	-44.1888	
29	0.241667	126.501	129.639	-22.2425	102.498	129.23	-45.9774	80.2586	108.599	-70.2106	69.9848	84.6365	-78.7042	97.7314	73.0919	-86.4166	83.048	61.5443	-98.8505	66.7131	43.8432	-113.064	105.891	53.7574	-86.7691	86.5933	37.7991	-101.378	68.0139	23.7036	-122.679	117.842	40.106	-72.7074	100.319	26.9465	-90.8679	83.1346	14.8948	-109.429	128.522	33.2689	-50.7286	113.215	18.6398	-70.0656	103.653	8.11493	-85.8994	155.103	69.1891	-38.7008	177.522	85.7699	-17.1525	149.525	110.439	-39.3195	
30	0.25	135.394	135.823	-23.5347	114.019	139.871	-47.7164	88.1172	125.497	-65.2895	70.2236	108.842	-72.5751	92.1553	89.4266	-80.8759	72.0597	73.8218	-91.2302	53.4566	62.3581	-103.993	93.4259	64.1832	-77.5776	69.3513	52.1365	-92.7781	47.8247	39.1192	-108.69	99.2654	47.1088	-65.3269	79.7551	40.0249	-79.9854	57.4479	25.9773	-96.5836	107.05	41.4039	-42.3246	87.1565	33.2704	-58.1651	74.8655	23.8249	-72.9299	145.924	67.5693	-30.5672	168.87	80.1995	-13.0326	152.739	107.431	-36.142	
31	0.258333	142.483	137.165	-18.9385	121.372	144.353	-46.4341	94.239	136.989	-63.6913	70.1282	125.299	-72.6924	89.4855	97.7049	-72.745	64.0066	91.643	-86.8762	41.4353	81.2631	-97.9941	81.6971	74.8758	-72.0724	56.7318	68.4705	-83.851	30.3947	62.7766	-102.671	81.5154	60.3307	-57.9249	60.2632	54.0104	-69.8939	39.9468	51.563	-85.5902	88.2994	50.1692	-33.2366	67.3685	48.9673	-46.7468	50.621	44.6332	-64.1136	133.633	70.2323	-25.6423	163.08	77.546	-7.9284	149.852	102.021	-30.6608	
32	0.266667	151.18	136.456	-16.4686	130.251	144.836	-46.5845	101.381	141.373	-67.4177	76.9301	133.613	-73.9084	91.4691	104.685	-72.1431	63.9699	104.852	-88.7066	42.3447	100.232	-97.8393	80.9129	85.2037	-68.2702	52.9095	85.7515	-84.8116	26.6749	78.3921	-99.6059	75.1816	69.5527	-53.9073	53.5302	69.2533	-67.2524	28.6481	65.6435	-83.5739	79.4248	60.8254	-30.1455	56.203	58.4271	-42.4823	36.5602	60.2633	-61.9876	127.49	66.9463	-20.655	151.811	68.5516	-1.27544	147.007	96.942	-29.5883	
33	0.275	155.903	129.526	-17.0751	143.288	142.709	-45.9015	113.958	142.892	-68.3159	88.2634	137.981	-80.8508	94.5733	108.654	-78.6977	72.8924	109.009	-90.6884	47.7727	105.826	-101.699	81.3952	87.5589	-68.0637	56.4584	92.2831	-87.1807	33.1503	91.9945	-104.288	69.904	75.5313	-56.3386	51.3562	76.7788	-69.0821	29.8814	76.9991	-84.0044	72.7219	67.3861	-32.8119	52.765	69.1732	-45.5196	33.9098	68.2717	-65.21	123.901	66.6316	-20.6979	146.575	66.5703	-1.56077	151.771	95.6995	-27.0682	
34	0.283333	161.014	118.724	-19.2288	152.82	130.595	-51.0453	127.814	132.749	-70.1219	102.999	133.01	-88.0973	102.972	100.149	-78.4496	82.2016	105.266	-100.494	61.4507	104.707	-111.914	87.5229	88.861	-78.1883	65.6227	91.9154	-93.2425	40.008	92.3178	-114.545	76.6038	77.2714	-60.8756	57.7733	79.5129	-73.8505	37.4737	82.8313	-98.28	73.4058	70.413	-36.283	53.7174	73.7835	-51.6089	40.7697	75.6285	-71.5137	120.865	63.5955	-16.7674	144.896	61.3374	4.02585	151.971	85.5772	-27.7974	
35	0.291667	171.218	109.813	-16.9815	164.574	118.187	-53.6246	143.772	122.497	-79.7105	120.352	121.335	-91.5096	118.999	91.4351	-89.107	99.5223	92.8708	-103.227	81.6202	95.1371	-123.917	99.202	78.1954	-84.9723	79.9774	81.8256	-104.303	58.1134	81.0888	-124.936	86.1637	69.0994	-65.4957	70.7736	74.6845	-88.1348	51.2239	74.5906	-109.957	80.9137	66.9307	-45.8322	66.889	71.8963	-59.9219	52.0823	72.7027	-82.5239	128.063	58.1527	-21.5314	147.653	54.4946	6.71524	158.254	73.758	-25.5635	
36	0.3	180.391	105.124	-20.9714	178.967	113.791	-51.0795	158.295	112.793	-85.3087	139.112	114.001	-99.9376	134.715	82.1679	-89.9628	121.579	85.1472	-112.371	101.569	84.3217	-130.14	118.906	73.2316	-91.0324	100.175	74.5724	-111.098	83.3653	73.4827	-139.694	102.777	65.1529	-72.7131	86.81	67.9967	-96.7202	73.1997	69.0078	-121.051	92.5731	62.8471	-47.9162	77.363	65.2351	-73.6461	72.2858	66.0492	-90.7184	135.586	57.526	-22.538	152.614	53.4454	1.41393	170.045	71.0357	-22.9915	
37	0.308333	190.957	107.403	-17.8655	193.7	113.665	-53.2834	175.329	110.045	-89.0389	156.247	108.743	-105.109	154.319	79.5024	-91.9341	140.463	77.5061	-114.492	128.02	77.0214	-140.593	136.228	66.3549	-94.0325	119.48	65.7946	-117.5	105.021	62.3601	-145.446	120.452	59.3202	-78.2343	107.277	60.8784	-104.272	98.6624	60.7937	-127.849	106.574	58.8637	-56.6078	95.8924	59.8473	-81.2792	91.4673	58.7489	-103.617	148.194	54.4865	-23.7501	160.141	51.5634	1.87928	180.178	70.8471	-27.9519	
38	0.316667	204.009	109.504	-19.2903	206.865	113.994	-54.2704	192.182	107.952	-89.9555	175.613	106.535	-107.257	173.834	73.6008	-97.6658	164.766	70.4571	-121.495	150.35	65.8537	-145.402	157.071	57.9484	-94.7252	147.424	57.176	-122.093	136.124	50.4007	-152.63	142.486	53.0208	-85.9891	132.135	49.1921	-105.061	125.41	47.8938	-133.804	128.505	52.1545	-60.0072	118.349	50.1026	-82.1123	115.903	47.9417	-106.397	164.585	54.4699	-26.1106	177.589	54.3216	-0.330792	196.743	70.2366	-27.2071	
39	0.325	215.995	115.387	-22.1093	216.129	115.239	-58.0044	202.505	108.144	-88.7838	188.106	105.324	-107.938	197.126	74.91	-95.1096	189.458	67.7192	-121.427	177.849	59.7207	-147.531	182.971	55.0673	-100.2	171.282	47.8228	-127.216	161.265	39.0656	-155.241	163.802	43.7646	-88.5442	158.207	40.7998	-111.027	151.755	36.5542	-139.492	152.922	45.0914	-65.4163	143.391	38.6828	-89.4	140.156	34.42	-113.761	181.885	49.9316	-28.273	192.641	54.0494	2.60597	213.851	74.509	-28.3202	
40	0.333333	219.648	119.483	-24.3509	220.54	124.479	-55.9718	210.407	117.208	-89.7963	196.441	106.705	-108.867	211.002	78.1953	-97.1563	202.175	68.6187	-121.395	193.889	58.0554	-149.779	198.3	54.4824	-98.3447	191.606	50.6162	-125.351	185.241	38.8852	-156.246	182.815	42.6762	-85.702	178.723	38.6387	-112.233	174.261	31.0625	-138.082	168.715	37.525	-66.9489	162.899	32.3976	-91.9321	162.043	26.8692	-114.356	199.301	53.3072	-31.0783	208.881	56.2974	0.176841	221.581	80.1409	-26.7557	
41	0.341667	216.867	125.248	-22.5318	219.241	135.694	-54.2772	210.869	123.032	-88.6824	199.672	112.075	-111.868	220.584	87.811	-99.2034	214.571	77.6563	-124.252	210.648	69.4545	-148.824	214.071	63.0546	-103.768	207.495	53.7721	-129.047	204.322	42.914	-159.285	201.336	45.5589	-91.7761	199.477	43.0011	-113.161	196.315	33.7836	-144.451	187.131	37.6672	-67.8947	184.963	35.3618	-97.9362	184.665	27.842	-116.788	213.878	56.3758	-30.4152	218.352	62.2124	-3.83939	230.567	91.9601	-27.2567	
42	0.35	212.554	130.109	-22.5882	212.172	142.258	-52.2929	207.808	132.626	-89.8846	200.125	120.116	-113.403	223.85	94.8329	-101.704	221.13	88.5415	-123.664	219.452	80.104	-149.968	223.972	71.4831	-105.145	220.965	65.3873	-128.589	222.327	57.737	-159.916	216.855	57.7913	-92.964	216.309	50.9055	-118.234	216.888	48.4786	-144.037	204.39	41.3829	-72.1383	203.626	38.3066	-96.4867	207.445	35.5866	-121.732	224.899	64.619	-32.6584	228.352	68.4776	-5.44216	232.955	101.163	-30.7417	
43	0.358333	206.518	138.473	-21.7228	203.325	147.261	-51.1234	199.63	141.374	-86.2845	194.34	129.442	-108.551	225.543	108.294	-97.9032	225.445	104.668	-129.937	224.686	97.3279	-152.405	229.495	87.7781	-102.351	228.807	84.8271	-133.323	231.7	78.1973	-160.896	228.63	68.6596	-93.7355	228.364	64.8844	-123.034	229.819	58.9357	-147.652	220.217	50.1158	-77.0374	218.688	51.0037	-101.527	222.656	47.9873	-125.139	232.944	75.5161	-34.6557	237.073	79.2176	-7.10894	233.083	109.199	-26.6389	
44	0.366667	197.548	137.277	-22.8934	190.592	151.036	-48.4933	186.983	146.154	-83.9873	184	135.175	-108.94	221.07	123.524	-103.781	219.106	121.096	-127.451	221.022	110.491	-154.977	229.038	104.421	-107.304	229.375	98.9595	-136.321	232.437	97.7319	-165.481	232.941	83.0794	-100.718	233.734	82.5092	-126.643	235.121	79.3117	-151.959	227.338	66.2825	-79.7533	228.937	63.1178	-107.335	230.845	67.5454	-129.604	239.557	87.1078	-41.3713	239.445	90.1227	-5.91969	229.103	122.658	-27.0793	
45	0.375	185.756	137.85	-20.874	175.051	151.035	-49.6452	171.263	148.398	-85.5182	170	137.716	-111.024	209.317	133.398	-99.3676	204.793	133.942	-128.16	206.954	128.572	-157.893	220.9	120.398	-108.011	218.798	118.801	-135.018	223.34	116.711	-167.185	229.611	100.787	-99.0403	229.922	100.757	-128.992	231.628	102.544	-155.293	234.475	78.9881	-85.8296	230.708	81.1441	-107.496	237.396	82.6935	-133.387	236.072	102.467	-42.0952	242.681	101.387	-8.39756	219.398	134.567	-30.7242	
